<svg width="301" height="301" viewBox="0 0 301 301" fill="none" xmlns="http://www.w3.org/2000/svg">
<path d="M6.10352e-05 0H301V301H6.10352e-05V0Z" fill="#C4C4C4" fill-opacity="0.1"/>
<path d="M255.849 61.1534C256.135 58.6399 258.279 56.6854 260.784 57.0421C294.551 61.8519 301 124.392 301 148.748C301 177.001 294.84 202.279 285.146 219.155C283.136 222.654 278.216 221.816 277.023 217.961L253.14 140.748H151V149.248C151 154.495 146.747 158.748 141.5 158.748C136.253 158.748 132 154.495 132 149.248V140.748H19.0001V149.248C19.0001 154.495 14.7468 158.748 9.50006 158.748C4.25336 158.748 6.2948e-05 154.495 6.28854e-05 149.248L6.10352e-05 108.748L250.434 108.748L255.849 61.1534Z" fill="black"/>
<path d="M9 150C9 149.448 9.44772 149 10 149C10.5523 149 11 149.448 11 150C11 150.552 10.5523 151 10 151C9.44772 151 9 150.552 9 150Z" fill="#C4C4C4"/>
<path d="M141 150C141 149.448 141.448 149 142 149C142.552 149 143 149.448 143 150C143 150.552 142.552 151 142 151C141.448 151 141 150.552 141 150Z" fill="#C4C4C4"/>
</svg>
