<svg width="244" height="244" viewBox="0 0 244 244" fill="none" xmlns="http://www.w3.org/2000/svg">
<rect width="244" height="244" fill="#C4C4C4"/>
<path d="M114.527 116.5H114.516C114.523 116.824 114.527 117.149 114.527 117.474C114.527 117.483 114.527 117.491 114.527 117.5C114.527 117.509 114.527 117.517 114.527 117.526C114.509 149.089 80.2365 175.183 35.7238 179.403C33.7189 179.593 32.4046 181.626 33.2715 183.443C44.4939 206.976 76.2028 224.475 114.527 226.749V241C114.527 242.105 115.423 243 116.527 243H127.527C128.632 243 129.527 242.105 129.527 241V116C129.527 114.895 128.632 114 127.527 114L116.527 114C115.423 114 114.527 114.895 114.527 116V116.5Z" fill="#FF0000"/>
<path d="M121 122C121 121.448 121.448 121 122 121C122.552 121 123 121.448 123 122C123 122.552 122.552 123 122 123C121.448 123 121 122.552 121 122Z" fill="#C4C4C4"/>
<path d="M121 166C121 165.448 121.448 165 122 165C122.552 165 123 165.448 123 166C123 166.552 122.552 167 122 167C121.448 167 121 166.552 121 166Z" fill="#C4C4C4"/>
</svg>
