<svg width="410" height="369" viewBox="0 0 410 369" fill="none" xmlns="http://www.w3.org/2000/svg">
<path fill-rule="evenodd" clip-rule="evenodd" d="M258.295 6.259C257.49 2.88424 254.475 0.502404 251.005 0.500002C247.536 0.4976 244.517 2.87525 243.707 6.2489L177.028 283.943L159.481 257.253C158.557 255.847 156.987 255 155.303 255H109.309H108.5V242.096L119.85 244.469C121.512 244.817 123.235 245 125 245C138.807 245 150 233.807 150 220C150 206.193 138.807 195 125 195C123.211 195 121.466 195.188 119.784 195.545L101.4 199.388C96.1608 194.202 88.9544 191 81 191C70.4404 191 61.199 196.644 56.1277 205.079L10.4989 268.019C8.93746 269.918 8 272.349 8 275V301H7.49998C4.46651 301 1.73174 302.827 0.570879 305.63C-0.589979 308.432 0.0516893 311.658 2.19667 313.803L57.3934 369L88.5 369H338.421V342L258.295 6.259ZM406 369H410V9H406V369ZM30 301H58L58 265.563L30 280.929V301ZM73.5 255H58L58 263.51L30 278.875V275C30 268.925 25.0751 264 19 264C17.637 264 16.3319 264.248 15.1273 264.701L52.9838 212.483C52.3421 214.88 52 217.4 52 220C52 233.423 61.1191 244.715 73.5 248.021V255ZM93.5 255H88.5V248.826L92.504 246.629C92.8393 246.484 93.1714 246.332 93.5 246.175V255ZM25.6066 316H58L58 348.393L25.6066 316ZM214.49 342H322.999L250.978 40.2155L188.283 301.317L189.021 302.457L214.49 342ZM54 220C54 232.309 62.2372 242.695 73.5 245.945V234.137C68.4432 231.449 65 226.126 65 220C65 212.189 70.5974 205.685 78 204.281L99.0138 199.887C94.2353 195.605 87.9219 193 81 193C66.0883 193 54 205.088 54 220ZM93.5 243.938V238.961L88.5 237.915V245.945C90.2458 245.441 91.919 244.766 93.5 243.938Z" fill="black"/>
<path d="M250 9C250 8.44772 250.448 8 251 8C251.552 8 252 8.44772 252 9C252 9.55228 251.552 10 251 10C250.448 10 250 9.55228 250 9Z" fill="#C4C4C4"/>
<path d="M124 220C124 219.448 124.448 219 125 219C125.552 219 126 219.448 126 220C126 220.552 125.552 221 125 221C124.448 221 124 220.552 124 220Z" fill="#C4C4C4"/>
</svg>
