<svg width="56" height="56" viewBox="0 0 56 56" fill="none" xmlns="http://www.w3.org/2000/svg">
<rect width="56" height="56" fill="#C4C4C4"/>
<path fill-rule="evenodd" clip-rule="evenodd" d="M0.252075 24.1227L25.0957 28.5121L3.25237 41.1334L3.251 41.1342L4.251 42.8662L26.1044 30.2591L17.4839 53.9691L19.363 54.6537L28 30.9491L36.6368 54.6531L38.5164 53.9697L29.8956 30.2591L51.7484 42.8659L52.749 41.1342L30.9043 28.5121L55.7479 24.1227L55.4013 22.153L30.554 26.5255L46.7639 7.19381L45.2322 5.90771L29.0086 25.2288L29 0.000349007L27 -0.000335693L26.9914 25.2288L10.7682 5.90824L9.23569 7.19329L25.446 26.5255L0.599371 22.1531L0.252075 24.1227Z" fill="black"/>
</svg>
