<svg width="434" height="434" viewBox="0 0 434 434" fill="none" xmlns="http://www.w3.org/2000/svg">
<rect width="434" height="434" fill="#C4C4C4"/>
<path fill-rule="evenodd" clip-rule="evenodd" d="M217 0.5C219.485 0.5 221.5 2.51472 221.5 5V217C221.5 219.485 219.485 221.5 217 221.5C214.515 221.5 212.5 219.485 212.5 217V5C212.5 2.51472 214.515 0.5 217 0.5Z" fill="black"/>
<path d="M216 217C216 216.448 216.448 216 217 216C217.552 216 218 216.448 218 217C218 217.552 217.552 218 217 218C216.448 218 216 217.552 216 217Z" fill="#C4C4C4"/>
<path d="M216 5C216 4.44772 216.448 4 217 4C217.552 4 218 4.44772 218 5C218 5.55228 217.552 6 217 6C216.448 6 216 5.55228 216 5Z" fill="#C4C4C4"/>
</svg>
